<svg xmlns="http://www.w3.org/2000/svg" aria-hidden="true" style="position:absolute;width:0;height:0;overflow:hidden">
    <defs>
        <symbol id="icon-man" viewBox="0 0 32 32">
            <path d="M16 16c4.42 0 8-3.58 8-8s-3.58-8-8-8c-4.42 0-8 3.58-8 8s3.58 8 8 8zM16 20c-5.34 0-16 2.68-16 8v2c0 1.1 0.9 2 2 2h28c1.1 0 2-0.9 2-2v-2c0-5.32-10.66-8-16-8z"/>
        </symbol>
        <symbol id="icon-key" viewBox="0 0 32 32">
            <path d="M22 0c-5.523 0-10 4.477-10 10 0 0.626 0.058 1.238 0.168 1.832l-12.168 12.168v6c0 1.105 0.895 2 2 2h2v-2h4v-4h4v-4h4l2.595-2.595c1.063 0.385 2.209 0.595 3.405 0.595 5.523 0 10-4.477 10-10s-4.477-10-10-10zM24.996 10.004c-1.657 0-3-1.343-3-3s1.343-3 3-3 3 1.343 3 3-1.343 3-3 3z"/>
        </symbol>
        <symbol id="icon-solvensy" viewBox="0 0 48 32">
            <path d="M11.995 0.247c-0.508 0.811-0.819 1.587-0.903 2.272-0.037 0.282-0.016 0.873 0.039 1.103 0.15 0.646 0.459 1.157 0.965 1.591 0.305 0.261 0.375 0.426 0.375 0.868 0 0.519-0.123 0.741-0.782 1.42-0.453 0.465-0.527 0.552-0.87 1.015-0.691 0.928-1.185 1.875-1.523 2.916-0.111 0.338-0.247 0.846-0.237 0.879 0.004 0.012 0.066 0.039 0.138 0.062s0.126 0.043 0.121 0.047c-0.004 0.006-0.053-0.004-0.111-0.021-0.195-0.056-0.595-0.121-1.017-0.165l-0.093-0.010 0.062 0.047c0.286 0.214 0.506 0.424 0.94 0.905 0.222 0.245 0.315 0.37 0.294 0.403-0.021 0.037-0.076-0.004-0.183-0.14-0.109-0.136-0.216-0.216-0.311-0.235-0.035-0.006-0.148-0.045-0.255-0.086-0.251-0.097-0.479-0.146-0.829-0.179-0.202-0.016-0.294-0.019-0.329-0.002-0.045 0.021-0.041 0.023 0.047 0.047 0.082 0.021 0.101 0.035 0.128 0.103 0.016 0.041 0.132 0.257 0.255 0.475 0.255 0.449 0.418 0.763 0.537 1.050 0.126 0.296 0.274 0.716 0.292 0.831 0.021 0.13 0.2 0.549 0.35 0.823 0.134 0.243 0.416 0.552 0.7 0.763 0.331 0.247 0.821 0.465 1.245 0.554 0.257 0.056 0.706 0.064 0.951 0.021 0.821-0.146 1.665-0.646 2.544-1.51 0.484-0.475 0.914-0.984 1.243-1.469 0.076-0.109 0.144-0.2 0.152-0.2 0.047 0 0.033 0.066-0.060 0.274-0.142 0.319-0.241 0.64-0.303 0.975-0.074 0.399-0.142 0.675-0.241 0.973-0.121 0.366-0.14 0.407-0.303 0.613l-0.148 0.185 0.053 0.097c0.062 0.117 0.068 0.202 0.016 0.191-0.021-0.004-0.041-0.033-0.049-0.072-0.006-0.037-0.027-0.088-0.045-0.115-0.033-0.049-0.198-0.146-0.218-0.128-0.004 0.006 0.021 0.041 0.056 0.078 0.093 0.095 0.091 0.148-0.002 0.088-0.025-0.016-0.095-0.043-0.154-0.062l-0.109-0.031 0.115 0.138c0.103 0.126 0.138 0.183 0.097 0.165-0.008-0.004-0.068-0.033-0.134-0.066s-0.123-0.056-0.128-0.051c-0.004 0.006 0.025 0.051 0.066 0.101 0.128 0.16 0.2 0.337 0.212 0.535 0.010 0.138 0.029 0.21 0.086 0.34 0.132 0.3 0.387 1.066 0.387 1.163 0 0.019 0.051 0.119 0.113 0.224 0.274 0.453 0.442 0.967 0.442 1.346 0 0.274 0.016 0.3 0.206 0.327 0.152 0.021 0.183 0.043 0.249 0.183l0.049 0.101h0.298l0.002-0.068 0.002-0.066 0.016 0.058c0.010 0.033 0.012 0.072 0.006 0.091-0.010 0.025 0.002 0.027 0.068 0.014 0.134-0.025 0.173-0.045 0.175-0.095 0.002-0.027 0.010-0.008 0.023 0.039 0.021 0.099 0.039 0.107 0.101 0.045 0.037-0.037 0.043-0.062 0.035-0.193-0.010-0.214-0.064-0.284-0.325-0.422-0.243-0.128-0.401-0.253-0.56-0.44-0.13-0.154-0.146-0.198-0.261-0.661-0.111-0.451-0.126-0.547-0.126-0.879v-0.315l0.315-0.158c0.171-0.088 0.416-0.22 0.539-0.292l0.226-0.132 0.058 0.064c0.086 0.101 0.381 0.527 0.51 0.741 0.156 0.255 0.342 0.617 0.457 0.893 0.093 0.22 0.097 0.235 0.097 0.432 0 0.247 0.025 0.3 0.142 0.292 0.041-0.002 0.095-0.002 0.119 0 0.066 0.004 0.185 0.115 0.214 0.202l0.023 0.074 0.154-0.012c0.084-0.006 0.16-0.016 0.167-0.025 0.045-0.045-0.158-0.214-0.259-0.216-0.035 0-0.047-0.010-0.041-0.037s0.023-0.033 0.078-0.027c0.119 0.010 0.224 0.084 0.282 0.195 0.025 0.049 0.027 0.062 0.002 0.076-0.019 0.012-0.019 0.019-0.002 0.019 0.012 0 0.029-0.008 0.035-0.019 0.006-0.008 0.053-0.029 0.105-0.043 0.072-0.021 0.093-0.035 0.093-0.070 0-0.064-0.074-0.175-0.144-0.214-0.039-0.023-0.062-0.051-0.062-0.082 0-0.068 0.033-0.056 0.146 0.058l0.105 0.105-0.014-0.068c-0.027-0.13-0.107-0.237-0.237-0.315-0.255-0.154-0.469-0.405-0.554-0.65-0.086-0.243-0.498-1.815-0.519-1.976-0.006-0.047 0.031-0.097 0.241-0.311 0.578-0.595 0.809-1.148 0.747-1.801-0.016-0.191-0.066-0.463-0.136-0.772l-0.031-0.14 0.078-0.103c0.128-0.167 0.323-0.288 0.535-0.329 0.101-0.021 0.156-0.019 0.317 0.008 0.667 0.115 1.227 0.479 1.603 1.041 0.099 0.148 0.126 0.21 0.175 0.401 0.385 1.486 1.012 2.527 1.821 3.015 0.265 0.158 0.457 0.228 0.973 0.36 0.152 0.039 0.222 0.091 0.222 0.167 0 0.064-0.070 0.208-0.138 0.28-0.039 0.041-0.049 0.068-0.039 0.107 0.014 0.056-0.016 0.156-0.047 0.156-0.010 0-0.025-0.056-0.033-0.123-0.012-0.105-0.025-0.132-0.084-0.185-0.039-0.033-0.078-0.062-0.088-0.062-0.008 0 0.010 0.053 0.043 0.117 0.076 0.15 0.051 0.175-0.080 0.080-0.056-0.039-0.128-0.082-0.158-0.095l-0.060-0.023 0.035 0.051c0.019 0.029 0.066 0.113 0.107 0.187 0.082 0.148 0.062 0.181-0.045 0.070-0.033-0.035-0.095-0.082-0.138-0.103l-0.078-0.041 0.053 0.080c0.084 0.13 0.136 0.305 0.146 0.506 0.006 0.103 0.014 0.21 0.021 0.237 0.025 0.115 0.461 0.508 1.027 0.922 0.317 0.233 1.292 0.901 1.535 1.054l0.136 0.084h0.852l-0.033-0.062c-0.041-0.080-0.039-0.123 0.006-0.123 0.025 0 0.051 0.029 0.076 0.082 0.037 0.080 0.039 0.082 0.146 0.082h0.109l-0.031-0.072c-0.037-0.093-0.037-0.134 0.004-0.134 0.019 0 0.045 0.035 0.064 0.082 0.029 0.074 0.041 0.082 0.103 0.082h0.068l-0.012-0.088c-0.025-0.156-0.105-0.259-0.265-0.34-0.103-0.051-0.465-0.142-0.669-0.169-0.226-0.027-0.494-0.136-0.494-0.202 0-0.012-0.010-0.025-0.021-0.025-0.012 0-0.070-0.043-0.128-0.099-0.255-0.239-0.517-0.712-0.611-1.113-0.070-0.29-0.006-0.41 0.286-0.545 0.062-0.029 0.148-0.053 0.189-0.053 0.043 0 0.123-0.019 0.181-0.041l0.105-0.041 0.158 0.146c0.321 0.294 0.908 0.726 1.854 1.36l0.582 0.391 0.621-0.010c0.34-0.006 0.652-0.019 0.691-0.029 0.068-0.019 0.072-0.023 0.066-0.101-0.021-0.249-0.216-0.381-0.704-0.475-0.177-0.033-0.185-0.033-0.224 0.002s-0.053 0.037-0.171 0.012c-0.364-0.070-0.685-0.362-0.936-0.856-0.099-0.191-0.233-0.535-0.233-0.595 0-0.047 0.062-0.056 0.512-0.074 0.488-0.019 0.656-0.039 0.949-0.111 0.755-0.189 1.447-0.665 1.887-1.299 0.198-0.282 0.255-0.356 0.372-0.484 0.058-0.064 0.107-0.121 0.107-0.13 0-0.006-0.033-0.012-0.072-0.012-0.093 0-0.319-0.084-0.426-0.156-0.16-0.111-0.284-0.331-0.284-0.506 0-0.123 0.049-0.097 0.078 0.041 0.066 0.323 0.333 0.504 0.786 0.539 0.119 0.010 0.241 0.023 0.274 0.031 0.031 0.008 0.056 0.006 0.056-0.004s0.014-0.037 0.033-0.060c0.031-0.037 0.031-0.037 0.010 0.006-0.012 0.025-0.023 0.074-0.023 0.111v0.066l0.091-0.084c0.049-0.045 0.109-0.093 0.136-0.107 0.043-0.023 0.045-0.021 0.035 0.023-0.132 0.543-0.134 0.531 0.047 0.34 0.119-0.126 0.28-0.239 0.34-0.239 0.027 0 0.006 0.056-0.031 0.078-0.023 0.012-0.064 0.070-0.093 0.128-0.053 0.107-0.123 0.366-0.103 0.387 0.006 0.006 0.010 0.002 0.010-0.010 0-0.039 0.126-0.179 0.233-0.261 0.15-0.113 0.467-0.261 0.584-0.276 0.053-0.006 0.105-0.021 0.113-0.031 0.019-0.029 0.208 0.014 0.416 0.093l0.163 0.064 0.401-0.014c0.222-0.008 0.477-0.025 0.568-0.035 0.093-0.010 0.286-0.025 0.432-0.033 0.243-0.010 0.272-0.016 0.315-0.060 0.039-0.039 0.047-0.070 0.047-0.171 0-0.070-0.010-0.165-0.023-0.212-0.023-0.082-0.019-0.101 0.060-0.29l0.084-0.2h-0.169c-0.142 0-0.208-0.012-0.405-0.078l-0.237-0.080v-0.49l0.093 0.006c0.056 0.002 0.103 0.019 0.117 0.039 0.021 0.025 0.031 0.027 0.056 0.008 0.023-0.019 0.031-0.016 0.041 0.010 0.012 0.033 0.016 0.033 0.041-0.002s0.029-0.035 0.047-0.002c0.019 0.033 0.023 0.033 0.045 0.004 0.039-0.047 0.128-0.041 0.14 0.008s0.039 0.053 0.064 0.008c0.016-0.031 0.021-0.031 0.031 0 0.019 0.045 0.049 0.041 0.062-0.008 0.016-0.060 0.138-0.060 0.138 0.002 0 0.033 0.008 0.039 0.041 0.029 0.037-0.012 0.039-0.006 0.029 0.056-0.008 0.037-0.035 0.121-0.060 0.185-0.037 0.093-0.041 0.119-0.019 0.119 0.039 0 0.253-0.22 0.317-0.323 0.056-0.091 0.089-0.109 0.212-0.109 0.171 0 0.327-0.123 0.428-0.338 0.084-0.177 0.080-0.202-0.043-0.253l-0.103-0.043-0.031 0.072c-0.035 0.082-0.148 0.233-0.177 0.233-0.010 0-0.019-0.031-0.019-0.068 0-0.091-0.093-0.243-0.249-0.414l-0.13-0.14 0.171 0.086 0.171 0.084-0.066-0.093c-0.070-0.105-0.115-0.136-0.196-0.136-0.029 0-0.101-0.023-0.16-0.051l-0.107-0.053 0.082 0.072c0.045 0.041 0.072 0.074 0.062 0.074-0.039 0-0.63-0.338-0.912-0.521-0.183-0.119-0.286-0.2-0.309-0.243-0.097-0.179-0.208-0.321-0.331-0.424-0.181-0.15-0.403-0.28-0.617-0.358-0.278-0.101-1.115-0.307-1.249-0.307-0.035 0-0.049 0.012-0.049 0.041 0 0.039-0.014 0.041-0.41 0.041-0.253 0-0.416-0.008-0.424-0.021-0.006-0.012-0.041-0.021-0.074-0.021s-0.132-0.035-0.22-0.080c-0.342-0.171-0.768-0.278-0.798-0.202-0.006 0.021 0.016 0.082 0.058 0.148 0.037 0.064 0.086 0.146 0.109 0.185 0.023 0.037 0.086 0.136 0.142 0.218 0.056 0.084 0.119 0.183 0.144 0.22 0.062 0.097 0.206 0.185 0.346 0.214 0.109 0.023 0.15 0.058 0.101 0.086-0.033 0.021-0.253-0.049-0.342-0.111-0.056-0.037-0.119-0.111-0.167-0.189-0.041-0.072-0.117-0.187-0.167-0.257-0.047-0.070-0.088-0.136-0.088-0.146 0-0.012-0.047-0.031-0.103-0.043-0.080-0.016-0.119-0.016-0.169 0.004l-0.064 0.025 0.144 0.175c0.156 0.193 0.294 0.379 0.294 0.399 0 0.006-0.012 0.012-0.029 0.012s-0.070-0.056-0.119-0.123c-0.047-0.068-0.095-0.123-0.101-0.123s-0.053 0.060-0.109 0.134c-0.471 0.642-1.387 1.142-2.085 1.142-0.245 0-0.521-0.060-0.733-0.161-0.181-0.084-0.57-0.377-0.57-0.426 0-0.016-0.047-0.105-0.107-0.2-0.144-0.233-0.352-0.667-0.428-0.895-0.121-0.368-0.128-0.679-0.019-0.895 0.023-0.045 0.033-0.076 0.021-0.070-0.045 0.029-0.21 0.28-0.28 0.426-0.068 0.146-0.154 0.434-0.154 0.519 0 0.080-0.023 0.019-0.051-0.146-0.014-0.091-0.039-0.298-0.051-0.461-0.012-0.161-0.027-0.296-0.029-0.3-0.021-0.021-0.239 0.375-0.319 0.578-0.051 0.128-0.062 0.177-0.051 0.243 0.012 0.074 0.010 0.084-0.025 0.076-0.066-0.012-0.111-0.216-0.126-0.57-0.014-0.35-0.014-0.35-0.123-0.136-0.068 0.132-0.088 0.21-0.105 0.401-0.010 0.117-0.023 0.154-0.045 0.154-0.045 0-0.051-0.191-0.010-0.333 0.029-0.099 0.029-0.115 0.004-0.136-0.016-0.014-0.321-0.243-0.675-0.51-2.509-1.889-3.424-2.332-4.71-2.274-0.621 0.029-1.525 0.115-1.743 0.167-0.342 0.082-0.735 0.243-1.002 0.407l-0.080 0.049 0.091 0.012c0.049 0.008 0.163 0.021 0.251 0.027 0.132 0.012 0.158 0.021 0.154 0.047-0.008 0.041-0.091 0.041-0.438 0.004-0.5-0.051-0.694-0.123-0.926-0.335-0.146-0.134-0.148-0.126-0.033 0.101 0.091 0.177 0.245 0.36 0.346 0.407 0.091 0.043 0.117 0.093 0.051 0.093-0.049 0-0.416-0.198-0.613-0.329-0.136-0.091-0.154-0.099-0.142-0.058 0.033 0.117 0.179 0.389 0.276 0.519 0.060 0.076 0.103 0.144 0.099 0.148-0.025 0.025-0.342-0.123-0.488-0.226-0.144-0.103-0.144-0.103-0.099 0.002 0.068 0.158 0.169 0.303 0.259 0.372 0.095 0.076 0.107 0.078 0.191 0.033 0.035-0.016 0.066-0.029 0.070-0.025s-0.049 0.070-0.117 0.15c-0.626 0.729-1.253 1.62-1.622 2.305-0.352 0.654-0.852 1.315-1.317 1.735-0.156 0.142-0.161 0.144-0.372 0.196-0.305 0.074-0.49 0.099-0.751 0.099-0.364 0-0.611-0.076-0.8-0.251-0.206-0.189-0.35-0.792-0.298-1.253 0.025-0.218 0.086-0.484 0.134-0.576 0.039-0.074 0.484-0.5 0.741-0.706 0.537-0.432 1.029-0.661 1.344-0.624 0.115 0.014 0.214 0.053 0.364 0.146 0.107 0.066 0.126 0.064 0.082-0.006-0.142-0.222-0.346-0.418-0.611-0.587-0.14-0.091-0.37-0.171-0.545-0.191-0.111-0.012-0.146-0.006-0.263 0.041-0.138 0.056-0.237 0.070-0.237 0.033 0-0.012 0.012-0.021 0.029-0.021 0.014 0 0.072-0.019 0.128-0.039 0.648-0.259 0.846-0.315 1.257-0.356l0.253-0.025-0.117-0.121c-0.179-0.183-0.444-0.372-0.683-0.492-0.183-0.093-0.237-0.109-0.356-0.115-0.101-0.006-0.14-0.016-0.14-0.037 0-0.039 0.179-0.148 0.268-0.165 0.039-0.006 0.169-0.045 0.288-0.086 0.187-0.062 0.249-0.074 0.469-0.082l0.253-0.010-0.099-0.088c-0.272-0.245-0.523-0.377-0.735-0.381l-0.105-0.004 0.082-0.012c0.078-0.012 0.185-0.002 0.298 0.025 0.047 0.012 0.062-0.004 0.204-0.249 0.249-0.428 0.665-1.089 0.854-1.352 0.558-0.784 0.8-1.482 0.766-2.202-0.049-1.056-0.638-1.98-1.906-2.994-0.35-0.282-0.432-0.358-0.432-0.41 0-0.062 0.086-0.051 0.103 0.012 0.008 0.035 0.473 0.438 0.504 0.438 0.004 0-0.043-0.070-0.105-0.158-0.307-0.426-0.543-0.889-0.706-1.375-0.152-0.459-0.22-0.825-0.265-1.44l-0.014-0.206-0.136 0.216zM9.394 12.45c0.006 0.012-0.002 0.014-0.019 0.008-0.037-0.014-0.043-0.029-0.014-0.029 0.012 0 0.027 0.008 0.033 0.021zM26.423 13.697c0 0.016-0.008 0.025-0.021 0.019-0.010-0.006-0.021-0.027-0.021-0.043s0.010-0.025 0.021-0.019c0.012 0.006 0.021 0.027 0.021 0.043zM33.29 14.335c0.15 0.072 0.422 0.105 0.57 0.070 0.128-0.031 0.268-0.019 0.368 0.033 0.080 0.041 0.179 0.13 0.179 0.163 0 0.014 0.047 0.066 0.103 0.117 0.080 0.074 0.103 0.107 0.103 0.156 0 0.045-0.012 0.066-0.041 0.076-0.023 0.006-0.041 0.027-0.041 0.043 0 0.037 0 0.037-0.121-0.012l-0.101-0.039-0.033 0.049c-0.016 0.027-0.082 0.072-0.146 0.103-0.21 0.103-0.346 0.058-0.683-0.235-0.198-0.169-0.286-0.296-0.348-0.49-0.027-0.088-0.049-0.165-0.049-0.167 0-0.004 0.031 0.012 0.068 0.037 0.035 0.025 0.113 0.068 0.173 0.095zM27.753 18.229c-0.037 0.486-0.191 0.842-0.519 1.196-0.109 0.119-0.148 0.146-0.198 0.146-0.060 0-0.060-0.002 0.056-0.095 0.358-0.292 0.603-0.774 0.642-1.257 0.006-0.095 0.016-0.171 0.023-0.171s0.004 0.080-0.004 0.181z"></path>
            <path d="M33.926 14.498c-0.078 0.041-0.113 0.091-0.115 0.158 0 0.068 0.084 0.14 0.167 0.14 0.053 0 0.058-0.004 0.039-0.053-0.033-0.082-0.025-0.163 0.023-0.222l0.041-0.053h-0.047c-0.027 0-0.074 0.014-0.107 0.031z"></path>
            <path d="M36.857 15.578c0.039 0.027 0.062 0.027 0.062 0 0-0.012-0.021-0.021-0.045-0.021-0.039 0-0.041 0.004-0.016 0.021z"></path>
            <path d="M35.745 16.298c0 0.010 0.010 0.021 0.021 0.021 0.012 0 0.021-0.010 0.021-0.021 0-0.012-0.008-0.021-0.021-0.021-0.010 0-0.021 0.008-0.021 0.021z"></path>
            <path d="M35.811 16.617c-0.021 0.045-0.019 0.051 0.014 0.051 0.029 0 0.035-0.012 0.027-0.051-0.004-0.029-0.010-0.051-0.014-0.051-0.002 0-0.014 0.023-0.027 0.051z"></path>
            <path d="M35.696 16.617c-0.019 0.047-0.016 0.051 0.019 0.051s0.039-0.019 0.012-0.058c-0.014-0.023-0.021-0.021-0.031 0.006z"></path>
            <path d="M35.992 16.642c-0.023 0.047-0.029 0.051-0.035 0.021-0.012-0.047-0.039-0.043-0.078 0.010-0.031 0.045-0.029 0.047 0.025 0.060 0.033 0.008 0.074 0.021 0.095 0.029 0.031 0.012 0.035 0.002 0.035-0.080 0-0.051-0.004-0.095-0.006-0.095-0.004 0-0.021 0.025-0.035 0.056z"></path>
            <path d="M44.965 26.145v0.216h0.144v-0.268h0.329v1.317h-0.093c-0.084 0-0.093 0.004-0.093 0.051v0.051h0.761v-0.051c0-0.047-0.008-0.051-0.093-0.051h-0.093v-1.317h0.37v0.268h0.144v-0.432h-1.379v0.216z"></path>
            <path d="M1.829 25.991c-0.545 0.064-0.953 0.253-1.278 0.595-0.274 0.284-0.405 0.621-0.407 1.033 0 0.23 0.025 0.381 0.095 0.599 0.158 0.484 0.636 0.864 1.521 1.212 0.317 0.126 0.768 0.356 0.924 0.475 0.171 0.128 0.309 0.311 0.354 0.465 0.051 0.171 0.033 0.453-0.037 0.607-0.068 0.144-0.228 0.319-0.364 0.393-0.228 0.123-0.576 0.167-0.844 0.105-0.247-0.060-0.42-0.171-0.568-0.366-0.169-0.22-0.259-0.49-0.29-0.854l-0.014-0.169h-0.074c-0.241 0.002-0.551 0.13-0.673 0.278-0.119 0.146-0.161 0.265-0.161 0.463-0.002 0.405 0.196 0.698 0.615 0.91 0.329 0.167 0.601 0.222 1.152 0.237 0.375 0.010 0.465 0.004 0.679-0.031 0.426-0.074 0.712-0.193 1.023-0.428 0.218-0.163 0.364-0.337 0.479-0.574 0.128-0.259 0.16-0.416 0.16-0.741-0.002-0.527-0.163-0.866-0.558-1.185-0.247-0.2-0.484-0.327-0.969-0.523-0.597-0.239-0.967-0.447-1.169-0.652-0.235-0.241-0.311-0.56-0.208-0.875 0.037-0.115 0.068-0.163 0.169-0.265 0.165-0.165 0.325-0.224 0.599-0.224 0.169 0 0.2 0.006 0.323 0.068 0.274 0.134 0.463 0.436 0.527 0.838l0.033 0.216h0.105c0.247-0.002 0.537-0.101 0.687-0.239 0.138-0.123 0.198-0.255 0.198-0.442-0.002-0.134-0.010-0.175-0.068-0.29-0.15-0.307-0.502-0.51-1.041-0.603-0.226-0.039-0.712-0.056-0.92-0.031z"></path>
            <path d="M7.262 26.001c-0.671 0.109-1.091 0.315-1.484 0.731-0.484 0.506-0.718 1.157-0.751 2.068-0.041 1.189 0.317 2.142 0.998 2.655 0.307 0.23 0.621 0.37 1.056 0.467 0.191 0.041 0.268 0.047 0.698 0.047 0.539 0 0.661-0.016 1.050-0.146 0.587-0.195 1.047-0.587 1.364-1.161 0.28-0.506 0.418-1.255 0.364-1.99-0.060-0.846-0.323-1.504-0.792-1.971-0.338-0.34-0.753-0.556-1.307-0.679-0.214-0.047-0.951-0.062-1.196-0.021zM8.219 26.586c0.348 0.123 0.564 0.346 0.733 0.749 0.179 0.43 0.235 0.815 0.235 1.64 0 0.436-0.010 0.654-0.035 0.854-0.119 0.899-0.436 1.399-0.992 1.566-0.171 0.051-0.549 0.051-0.72 0-0.325-0.097-0.578-0.321-0.739-0.654-0.228-0.471-0.3-0.901-0.3-1.774 0-0.85 0.093-1.36 0.325-1.813 0.146-0.282 0.444-0.521 0.751-0.599 0.165-0.043 0.589-0.025 0.743 0.031z"></path>
            <path d="M35.395 26.003c-0.603 0.109-1.072 0.42-1.325 0.881-0.107 0.191-0.158 0.383-0.171 0.63-0.012 0.245 0.012 0.44 0.086 0.675 0.154 0.486 0.601 0.852 1.482 1.21 0.831 0.337 1.21 0.607 1.331 0.949 0.056 0.158 0.045 0.434-0.025 0.613-0.056 0.142-0.243 0.346-0.389 0.42-0.134 0.068-0.383 0.126-0.547 0.126-0.171 0-0.434-0.062-0.543-0.128-0.22-0.132-0.412-0.372-0.494-0.617-0.049-0.154-0.105-0.459-0.105-0.584v-0.091h-0.076c-0.233 0.002-0.545 0.126-0.669 0.265-0.249 0.282-0.23 0.755 0.039 1.089 0.196 0.241 0.659 0.447 1.167 0.517 0.206 0.029 0.704 0.029 0.91 0 0.628-0.086 1.152-0.356 1.461-0.745 0.14-0.179 0.243-0.389 0.298-0.609 0.037-0.146 0.041-0.216 0.035-0.473-0.008-0.259-0.016-0.323-0.066-0.463-0.101-0.294-0.335-0.582-0.64-0.788-0.171-0.115-0.506-0.28-0.813-0.401-0.554-0.218-0.957-0.445-1.165-0.652-0.391-0.391-0.315-1.058 0.142-1.276 0.63-0.3 1.2 0.105 1.282 0.908l0.014 0.138 0.126-0.010c0.189-0.016 0.438-0.084 0.545-0.144 0.313-0.183 0.412-0.514 0.249-0.846-0.148-0.3-0.533-0.51-1.080-0.593-0.257-0.039-0.846-0.037-1.060 0.002z"></path>
            <path d="M46.467 26.042c0 0.043 0.010 0.051 0.062 0.051h0.062v1.317h-0.113c-0.107 0-0.113 0.002-0.113 0.051v0.051h0.556v-0.051c0-0.045-0.008-0.051-0.072-0.051h-0.072v-0.613c0-0.366 0.008-0.599 0.019-0.58s0.107 0.29 0.216 0.607c0.107 0.317 0.206 0.607 0.218 0.642 0.023 0.060 0.033 0.068 0.099 0.068h0.076l0.216-0.661c0.117-0.362 0.222-0.665 0.23-0.669 0.010-0.006 0.014 0.261 0.012 0.593l-0.006 0.603-0.066 0.006c-0.062 0.006-0.068 0.012-0.068 0.078v0.072l0.099-0.010c0.053-0.006 0.214-0.016 0.36-0.025 0.257-0.012 0.261-0.012 0.261-0.060 0-0.039-0.012-0.049-0.066-0.056l-0.068-0.006v-1.296l0.068-0.006c0.056-0.006 0.066-0.014 0.066-0.058v-0.051l-0.624 0.012-0.179 0.535-0.177 0.533-0.097-0.276c-0.053-0.152-0.136-0.393-0.185-0.535l-0.086-0.257-0.628-0.012v0.053z"></path>
            <path d="M19.488 26.289v0.216h0.261c0.22 0 0.274 0.006 0.348 0.041 0.128 0.062 0.152 0.132 0.152 0.416v0.235l-0.348 1.019c-0.482 1.416-0.648 1.926-0.714 2.194-0.058 0.235-0.091 0.278-0.091 0.123 0-0.047-0.010-0.119-0.021-0.158-0.012-0.039-0.035-0.138-0.051-0.216-0.016-0.080-0.056-0.228-0.084-0.329-0.080-0.27-0.887-2.634-0.924-2.706-0.043-0.082-0.043-0.391 0-0.473 0.049-0.097 0.101-0.113 0.391-0.123l0.268-0.010 0.006-0.212 0.006-0.21h-2.698v0.432h0.181c0.165 0 0.189 0.006 0.278 0.060 0.051 0.035 0.117 0.097 0.146 0.14 0.027 0.043 0.44 1.198 0.916 2.568s0.875 2.521 0.887 2.558l0.025 0.066h0.815l0.041-0.119c0.333-0.973 1.597-4.628 1.665-4.82 0.181-0.5 0.175-0.494 0.508-0.494h0.255l-0.103-0.412h-2.116v0.216z"></path>
            <path d="M21.958 26.312v0.22l0.233-0.010c0.276-0.014 0.346 0.004 0.434 0.113l0.064 0.080 0.006 2.264c0.006 2.506 0.012 2.35-0.128 2.451-0.058 0.041-0.093 0.045-0.335 0.051l-0.274 0.008v0.407h2.397c2.27 0 2.397-0.002 2.397-0.037 0-0.019 0.014-0.346 0.031-0.724s0.031-0.696 0.031-0.706c0-0.008-0.128-0.014-0.286-0.014h-0.284l-0.035 0.23c-0.058 0.372-0.105 0.502-0.235 0.64-0.13 0.134-0.169 0.138-1.119 0.138h-0.84l0.004-1.148 0.006-1.146 0.973-0.006 0.971-0.004v-0.473h-1.955v-2.060l1.537 0.012 0.086 0.060c0.062 0.043 0.105 0.099 0.156 0.206 0.062 0.128 0.076 0.183 0.103 0.43 0.016 0.158 0.031 0.29 0.031 0.294s0.128 0.008 0.284 0.008h0.282l-0.012-0.477c-0.008-0.263-0.014-0.603-0.016-0.753l-0.002-0.272h-4.507v0.218z"></path>
            <path d="M11.236 26.32v0.206h0.249c0.286 0 0.35 0.021 0.43 0.138l0.051 0.076 0.006 2.202c0.004 1.212 0 2.243-0.006 2.292-0.010 0.064-0.035 0.111-0.091 0.169l-0.078 0.082h-0.562v0.426l2.389 0.016c1.313 0.008 2.393 0.008 2.4 0.002 0.012-0.012 0.064-1.294 0.066-1.655l0.002-0.169h-0.447l-0.086 0.391c-0.119 0.552-0.183 0.698-0.358 0.831-0.146 0.111-0.177 0.115-1.066 0.115h-0.821l0.004-2.362 0.006-2.36 0.049-0.066c0.082-0.109 0.152-0.13 0.432-0.13h0.249v-0.412h-2.819v0.206z"></path>
            <path d="M27.267 26.32v0.206h0.249c0.284 0 0.362 0.025 0.43 0.134 0.043 0.068 0.043 0.086 0.043 2.344 0 2.517 0.008 2.356-0.132 2.441-0.056 0.035-0.105 0.041-0.327 0.041h-0.263v0.432h2.14v-0.432h-0.249c-0.29 0-0.364-0.025-0.445-0.146l-0.051-0.076 0.004-1.92c0-1.056 0.004-1.922 0.006-1.924s0.72 1.010 1.597 2.247l1.593 2.251h0.796v-5.151l0.051-0.080c0.076-0.115 0.152-0.14 0.422-0.14h0.226v-0.412h-2.14v0.412h0.237c0.268 0 0.344 0.021 0.426 0.121 0.099 0.115 0.101 0.167 0.095 1.904l-0.006 1.624-2.881-4.079h-0.91l-0.912-0.002v0.206z"></path>
            <path d="M38.194 26.318v0.204l0.171 0.006c0.193 0.008 0.284 0.053 0.372 0.183 0.027 0.039 0.407 0.766 0.846 1.611l0.794 1.541-0.006 0.681c-0.006 0.646-0.008 0.687-0.049 0.766-0.023 0.045-0.074 0.103-0.111 0.128-0.064 0.043-0.091 0.047-0.383 0.047h-0.317v0.432h2.963v-0.432h-0.317c-0.313 0-0.319 0-0.381-0.053-0.117-0.097-0.115-0.084-0.107-0.862l0.006-0.72 0.741-1.451c0.807-1.576 0.868-1.692 0.957-1.772 0.091-0.086 0.138-0.101 0.303-0.101h0.156v-0.412h-2.14v0.405l0.191 0.012c0.235 0.014 0.364 0.058 0.444 0.15 0.115 0.132 0.138 0.358 0.056 0.584-0.027 0.074-0.206 0.457-0.399 0.854-0.191 0.395-0.403 0.848-0.469 1.004-0.066 0.154-0.126 0.276-0.132 0.268-0.008-0.010-0.031-0.064-0.051-0.119-0.089-0.245-0.22-0.533-0.595-1.284-0.42-0.842-0.471-0.977-0.436-1.161 0.031-0.169 0.206-0.28 0.469-0.298l0.16-0.010v-0.405h-2.737v0.204z"></path>
        </symbol>
    </defs>
</svg>